# xmcd
#
# Track frame offsets:
#  150
#  13520
#  27187
#  49760
#  69178
#  80852
#  103423
#  116620
#  140596
#  156968
#  173842
#  187789
#  208450
#  222188
#  235795
#  248579
#  265055
#  283697
#  298229
#  315131
#  327463
#  339260
#
# Disc length: 4675 seconds
#
# Revision: 1
# Processed by: cddbd v1.5.1PL0 Copyright (c) Steve Scherf et al.
# Submitted via: Collectorz.com Music Collector 6.9
#
DISCID=43124116
DTITLE=Various Artist - Great Gospel - People Get Ready
DYEAR=2004
DGENRE=Gospel
TTITLE0=Louise Davis and Faith - Getting The Spirit
TTITLE1=Lou Rawls - People Get Ready
TTITLE2=The Violinaires - Sing With The Angels
TTITLE3=The Williams Brothers - I'm Waiting
TTITLE4=The Highway QC's - Walk With Me
TTITLE5=Louise Davis and Faith - Better Then Blessed
TTITLE6=Lou Rawls - That's Heavan To Me
TTITLE7=The Pilgrim Jubilees - God's Been Good To Me
TTITLE8=The Mississippi Mass Choir - It's Good To Know Jesus
TTITLE9=The Truthettes - Need You To Hold My Hand
TTITLE10=Lou Rawls - Jesus Be A Fence Around Me
TTITLE11=The Sensational Nightingales - Freedom After A While
TTITLE12=The Famous Blue Jay Singers - Jesus Lover of My Soul
TTITLE13=The Harmonising Four - Father I Stretch My Hands To Thee
TTITLE14=The Davis Sisters - Blessed Quietness
TTITLE15=The Violinaires - Forever
TTITLE16=The Williams Brothers - In A Beautiful World
TTITLE17=Mahalia Jackson - Hands of God
TTITLE18=The Violinaires - One Day As I Was Walking Home
TTITLE19=Louise Davis and Faith - I'll Take Jesus
TTITLE20=Lou Rawls - Thank God For Standing By Me
TTITLE21=The Soul Stirrers - The Lord Is My Shepard
EXTD=
EXTT0=
EXTT1=
EXTT2=
EXTT3=
EXTT4=
EXTT5=
EXTT6=
EXTT7=
EXTT8=
EXTT9=
EXTT10=
EXTT11=
EXTT12=
EXTT13=
EXTT14=
EXTT15=
EXTT16=
EXTT17=
EXTT18=
EXTT19=
EXTT20=
EXTT21=
PLAYORDER=
